<mxfile host="Electron" agent="Mozilla/5.0 (Windows NT 10.0; Win64; x64) AppleWebKit/537.36 (KHTML, like Gecko) draw.io/28.0.4 Chrome/138.0.7204.97 Electron/37.2.1 Safari/537.36" version="28.0.4">
  <diagram name="Page-1" id="mVFfSMtklnBvnMsJZJNf">
    <mxGraphModel dx="1426" dy="849" grid="1" gridSize="10" guides="1" tooltips="1" connect="1" arrows="1" fold="1" page="1" pageScale="1" pageWidth="1600" pageHeight="900" math="0" shadow="0">
      <root>
        <mxCell id="0" />
        <mxCell id="1" parent="0" />
        <mxCell id="yotmoJqwYragH5JAqgv--1" value="" style="rounded=0;whiteSpace=wrap;html=1;strokeColor=default;fillColor=none;" parent="1" vertex="1">
          <mxGeometry x="420" y="180" width="770" height="540" as="geometry" />
        </mxCell>
        <mxCell id="VkBxCyh6oDg-tgL7otwm-9" value="&lt;font&gt;&lt;b&gt;Bronze Layer&lt;/b&gt;&lt;/font&gt;" style="rounded=0;whiteSpace=wrap;html=1;fillColor=#82572C;strokeColor=#d79b00;gradientColor=#CE8946;gradientDirection=north;fontColor=#593C1E;fontSize=16;" parent="1" vertex="1">
          <mxGeometry x="643.09" y="225" width="140" height="30" as="geometry" />
        </mxCell>
        <mxCell id="VkBxCyh6oDg-tgL7otwm-10" value="&lt;div&gt;&lt;br&gt;&lt;/div&gt;&lt;div&gt;&lt;br&gt;&lt;/div&gt;" style="rounded=0;whiteSpace=wrap;html=1;fillColor=none;strokeColor=#d79b00;gradientColor=#CE8946;gradientDirection=north;fontColor=#593C1E;fontSize=16;" parent="1" vertex="1">
          <mxGeometry x="643.09" y="265" width="140" height="410" as="geometry" />
        </mxCell>
        <mxCell id="VkBxCyh6oDg-tgL7otwm-11" value="&lt;b&gt;&lt;font style=&quot;color: rgb(78, 78, 78);&quot;&gt;Silver&amp;nbsp;&lt;/font&gt;&lt;span style=&quot;color: rgb(78, 78, 78); background-color: transparent;&quot;&gt;Layer&lt;/span&gt;&lt;/b&gt;" style="rounded=0;whiteSpace=wrap;html=1;fillColor=#f5f5f5;strokeColor=#666666;gradientColor=#C4C4C4;gradientDirection=north;fontSize=16;" parent="1" vertex="1">
          <mxGeometry x="818.09" y="225" width="140" height="30" as="geometry" />
        </mxCell>
        <mxCell id="VkBxCyh6oDg-tgL7otwm-12" value="&lt;div&gt;&lt;br&gt;&lt;/div&gt;&lt;div&gt;&lt;br&gt;&lt;/div&gt;" style="rounded=0;whiteSpace=wrap;html=1;fillColor=none;strokeColor=#C4C4C4;gradientColor=#b3b3b3;gradientDirection=north;fontSize=16;strokeWidth=2;" parent="1" vertex="1">
          <mxGeometry x="818.09" y="265" width="140" height="410" as="geometry" />
        </mxCell>
        <mxCell id="VkBxCyh6oDg-tgL7otwm-13" value="&lt;font style=&quot;color: rgb(129, 106, 23);&quot;&gt;&lt;b style=&quot;&quot;&gt;Gold Layer&lt;/b&gt;&lt;/font&gt;" style="rounded=0;whiteSpace=wrap;html=1;fillColor=#fff2cc;strokeColor=#d6b656;gradientColor=#EFBF04;gradientDirection=north;fontSize=16;fontColor=light-dark(#816A17,#EDEDED);" parent="1" vertex="1">
          <mxGeometry x="993.09" y="225" width="140" height="30" as="geometry" />
        </mxCell>
        <mxCell id="VkBxCyh6oDg-tgL7otwm-14" value="&lt;div&gt;&lt;br&gt;&lt;/div&gt;&lt;div&gt;&lt;br&gt;&lt;/div&gt;" style="rounded=0;whiteSpace=wrap;html=1;fillColor=none;strokeColor=#EFBF04;gradientColor=#ffd966;gradientDirection=north;fontSize=16;" parent="1" vertex="1">
          <mxGeometry x="993.09" y="265" width="140" height="410" as="geometry" />
        </mxCell>
        <mxCell id="vbh47llDTaEJvTZYUc-N-12" style="edgeStyle=orthogonalEdgeStyle;rounded=0;orthogonalLoop=1;jettySize=auto;html=1;entryX=0;entryY=0.5;entryDx=0;entryDy=0;fontColor=#FFFCFC;strokeColor=#FFFFFF;" parent="1" source="VkBxCyh6oDg-tgL7otwm-15" target="yotmoJqwYragH5JAqgv--2" edge="1">
          <mxGeometry relative="1" as="geometry">
            <Array as="points">
              <mxPoint x="598.09" y="385" />
              <mxPoint x="598.09" y="348" />
            </Array>
          </mxGeometry>
        </mxCell>
        <mxCell id="vbh47llDTaEJvTZYUc-N-13" style="edgeStyle=orthogonalEdgeStyle;rounded=0;orthogonalLoop=1;jettySize=auto;html=1;entryX=0;entryY=0.25;entryDx=0;entryDy=0;strokeColor=#FFFFFF;" parent="1" edge="1">
          <mxGeometry relative="1" as="geometry">
            <mxPoint x="519.9999999999997" y="385.08" as="sourcePoint" />
            <mxPoint x="653.09" y="385.33" as="targetPoint" />
          </mxGeometry>
        </mxCell>
        <mxCell id="vbh47llDTaEJvTZYUc-N-14" style="edgeStyle=orthogonalEdgeStyle;rounded=0;orthogonalLoop=1;jettySize=auto;html=1;entryX=0;entryY=0.5;entryDx=0;entryDy=0;strokeColor=#FFFFFF;" parent="1" edge="1">
          <mxGeometry relative="1" as="geometry">
            <mxPoint x="519.9999999999997" y="379.5" as="sourcePoint" />
            <mxPoint x="653.09" y="425.5" as="targetPoint" />
            <Array as="points">
              <mxPoint x="520.09" y="385" />
              <mxPoint x="598.09" y="385" />
              <mxPoint x="598.09" y="426" />
            </Array>
          </mxGeometry>
        </mxCell>
        <mxCell id="VkBxCyh6oDg-tgL7otwm-15" value="&lt;b&gt;CRM&lt;/b&gt;" style="sketch=0;pointerEvents=1;shadow=0;dashed=0;html=1;strokeColor=none;fillColor=#505050;labelPosition=center;verticalLabelPosition=bottom;verticalAlign=top;outlineConnect=0;align=center;shape=mxgraph.office.concepts.folder;fontColor=#FFFFFF;" parent="1" vertex="1">
          <mxGeometry x="467" y="353.5" width="53" height="50" as="geometry" />
        </mxCell>
        <mxCell id="VkBxCyh6oDg-tgL7otwm-19" value="" style="image;aspect=fixed;html=1;points=[];align=center;fontSize=12;image=img/lib/azure2/general/File.svg;" parent="1" vertex="1">
          <mxGeometry x="504.83000000000004" y="379.5" width="24.35" height="30" as="geometry" />
        </mxCell>
        <mxCell id="vbh47llDTaEJvTZYUc-N-15" style="edgeStyle=orthogonalEdgeStyle;rounded=0;orthogonalLoop=1;jettySize=auto;html=1;entryX=0;entryY=0.5;entryDx=0;entryDy=0;strokeColor=#FFFFFF;" parent="1" source="VkBxCyh6oDg-tgL7otwm-20" target="yotmoJqwYragH5JAqgv--5" edge="1">
          <mxGeometry relative="1" as="geometry">
            <Array as="points">
              <mxPoint x="598.09" y="525" />
              <mxPoint x="598.09" y="483" />
            </Array>
          </mxGeometry>
        </mxCell>
        <mxCell id="vbh47llDTaEJvTZYUc-N-16" style="edgeStyle=orthogonalEdgeStyle;rounded=0;orthogonalLoop=1;jettySize=auto;html=1;entryX=0;entryY=0.5;entryDx=0;entryDy=0;strokeColor=#FFFFFF;" parent="1" source="VkBxCyh6oDg-tgL7otwm-20" target="yotmoJqwYragH5JAqgv--6" edge="1">
          <mxGeometry relative="1" as="geometry">
            <Array as="points">
              <mxPoint x="653.09" y="525" />
            </Array>
          </mxGeometry>
        </mxCell>
        <mxCell id="vbh47llDTaEJvTZYUc-N-17" style="edgeStyle=orthogonalEdgeStyle;rounded=0;orthogonalLoop=1;jettySize=auto;html=1;entryX=0;entryY=0.5;entryDx=0;entryDy=0;strokeColor=#FFFFFF;" parent="1" source="VkBxCyh6oDg-tgL7otwm-20" target="yotmoJqwYragH5JAqgv--7" edge="1">
          <mxGeometry relative="1" as="geometry">
            <Array as="points">
              <mxPoint x="598.09" y="525" />
              <mxPoint x="598.09" y="563" />
            </Array>
          </mxGeometry>
        </mxCell>
        <mxCell id="VkBxCyh6oDg-tgL7otwm-20" value="&lt;b&gt;ERP&lt;/b&gt;" style="sketch=0;pointerEvents=1;shadow=0;dashed=0;html=1;strokeColor=none;fillColor=#505050;labelPosition=center;verticalLabelPosition=bottom;verticalAlign=top;outlineConnect=0;align=center;shape=mxgraph.office.concepts.folder;fontColor=#FEFEFE;" parent="1" vertex="1">
          <mxGeometry x="467" y="490.5" width="53" height="50" as="geometry" />
        </mxCell>
        <mxCell id="VkBxCyh6oDg-tgL7otwm-21" value="" style="image;aspect=fixed;html=1;points=[];align=center;fontSize=12;image=img/lib/azure2/general/File.svg;" parent="1" vertex="1">
          <mxGeometry x="504.83000000000004" y="516.5" width="24.35" height="30" as="geometry" />
        </mxCell>
        <mxCell id="vbh47llDTaEJvTZYUc-N-18" style="edgeStyle=orthogonalEdgeStyle;rounded=0;orthogonalLoop=1;jettySize=auto;html=1;strokeColor=#FFFFFF;" parent="1" source="yotmoJqwYragH5JAqgv--2" target="vbh47llDTaEJvTZYUc-N-1" edge="1">
          <mxGeometry relative="1" as="geometry" />
        </mxCell>
        <mxCell id="yotmoJqwYragH5JAqgv--2" value="crm_sales_details" style="rounded=1;whiteSpace=wrap;html=1;fillColor=#82572C;gradientColor=#CE8946;strokeColor=#d79b00;fontColor=#593C1E;fontStyle=1" parent="1" vertex="1">
          <mxGeometry x="653.09" y="334" width="120" height="27" as="geometry" />
        </mxCell>
        <mxCell id="vbh47llDTaEJvTZYUc-N-19" style="edgeStyle=orthogonalEdgeStyle;rounded=0;orthogonalLoop=1;jettySize=auto;html=1;entryX=0;entryY=0.5;entryDx=0;entryDy=0;strokeColor=#FFFFFF;" parent="1" source="yotmoJqwYragH5JAqgv--3" target="vbh47llDTaEJvTZYUc-N-7" edge="1">
          <mxGeometry relative="1" as="geometry" />
        </mxCell>
        <mxCell id="yotmoJqwYragH5JAqgv--3" value="crm_cust_info" style="rounded=1;whiteSpace=wrap;html=1;fillColor=#82572C;gradientColor=#CE8946;strokeColor=#d79b00;fontColor=#593C1E;fontStyle=1" parent="1" vertex="1">
          <mxGeometry x="653.09" y="372" width="120" height="27" as="geometry" />
        </mxCell>
        <mxCell id="vbh47llDTaEJvTZYUc-N-20" style="edgeStyle=orthogonalEdgeStyle;rounded=0;orthogonalLoop=1;jettySize=auto;html=1;strokeColor=#FFFFFF;" parent="1" source="yotmoJqwYragH5JAqgv--4" target="vbh47llDTaEJvTZYUc-N-8" edge="1">
          <mxGeometry relative="1" as="geometry" />
        </mxCell>
        <mxCell id="yotmoJqwYragH5JAqgv--4" value="crm_prd_info" style="rounded=1;whiteSpace=wrap;html=1;fillColor=#82572C;gradientColor=#CE8946;strokeColor=#d79b00;fontColor=#593C1E;fontStyle=1" parent="1" vertex="1">
          <mxGeometry x="653.09" y="411" width="120" height="27" as="geometry" />
        </mxCell>
        <mxCell id="vbh47llDTaEJvTZYUc-N-21" style="edgeStyle=orthogonalEdgeStyle;rounded=0;orthogonalLoop=1;jettySize=auto;html=1;strokeColor=#FFFFFF;" parent="1" source="yotmoJqwYragH5JAqgv--5" target="vbh47llDTaEJvTZYUc-N-9" edge="1">
          <mxGeometry relative="1" as="geometry" />
        </mxCell>
        <mxCell id="yotmoJqwYragH5JAqgv--5" value="erp_cust_az12" style="rounded=1;whiteSpace=wrap;html=1;fillColor=#82572C;gradientColor=#CE8946;strokeColor=#d79b00;fontColor=#593C1E;fontStyle=1" parent="1" vertex="1">
          <mxGeometry x="653.09" y="469.5" width="120" height="27" as="geometry" />
        </mxCell>
        <mxCell id="vbh47llDTaEJvTZYUc-N-22" style="edgeStyle=orthogonalEdgeStyle;rounded=0;orthogonalLoop=1;jettySize=auto;html=1;strokeColor=#FFFFFF;" parent="1" source="yotmoJqwYragH5JAqgv--6" target="vbh47llDTaEJvTZYUc-N-10" edge="1">
          <mxGeometry relative="1" as="geometry" />
        </mxCell>
        <mxCell id="yotmoJqwYragH5JAqgv--6" value="erp_loc_a101" style="rounded=1;whiteSpace=wrap;html=1;fillColor=#82572C;gradientColor=#CE8946;strokeColor=#d79b00;fontColor=#593C1E;fontStyle=1" parent="1" vertex="1">
          <mxGeometry x="653.09" y="509" width="120" height="27" as="geometry" />
        </mxCell>
        <mxCell id="vbh47llDTaEJvTZYUc-N-23" style="edgeStyle=orthogonalEdgeStyle;rounded=0;orthogonalLoop=1;jettySize=auto;html=1;strokeColor=#FFFFFF;" parent="1" source="yotmoJqwYragH5JAqgv--7" target="vbh47llDTaEJvTZYUc-N-11" edge="1">
          <mxGeometry relative="1" as="geometry" />
        </mxCell>
        <mxCell id="yotmoJqwYragH5JAqgv--7" value="erp_px_cat_g1v2" style="rounded=1;whiteSpace=wrap;html=1;fillColor=#82572C;gradientColor=#CE8946;strokeColor=#d79b00;fontColor=#593C1E;fontStyle=1" parent="1" vertex="1">
          <mxGeometry x="653.09" y="549" width="120" height="27" as="geometry" />
        </mxCell>
        <mxCell id="vbh47llDTaEJvTZYUc-N-1" value="&lt;font style=&quot;color: rgb(78, 78, 78);&quot;&gt;crm_sales_details&lt;/font&gt;" style="rounded=1;whiteSpace=wrap;html=1;fillColor=#F5F5F5;gradientColor=#C4C4C4;strokeColor=#666666;fontColor=#593C1E;fontStyle=1" parent="1" vertex="1">
          <mxGeometry x="828.09" y="334" width="120" height="27" as="geometry" />
        </mxCell>
        <mxCell id="vbh47llDTaEJvTZYUc-N-7" value="&lt;font style=&quot;color: rgb(78, 78, 78);&quot;&gt;crm_cust_info&lt;/font&gt;" style="rounded=1;whiteSpace=wrap;html=1;fillColor=#F5F5F5;gradientColor=#C4C4C4;strokeColor=#666666;fontColor=#593C1E;fontStyle=1" parent="1" vertex="1">
          <mxGeometry x="828.09" y="372" width="120" height="27" as="geometry" />
        </mxCell>
        <mxCell id="vbh47llDTaEJvTZYUc-N-8" value="&lt;font style=&quot;color: rgb(78, 78, 78);&quot;&gt;crm_prd_info&lt;/font&gt;" style="rounded=1;whiteSpace=wrap;html=1;fillColor=#F5F5F5;gradientColor=#C4C4C4;strokeColor=#666666;fontColor=#593C1E;fontStyle=1" parent="1" vertex="1">
          <mxGeometry x="828.09" y="411" width="120" height="27" as="geometry" />
        </mxCell>
        <mxCell id="vbh47llDTaEJvTZYUc-N-9" value="&lt;font style=&quot;color: rgb(78, 78, 78);&quot;&gt;erp_cust_az12&lt;/font&gt;" style="rounded=1;whiteSpace=wrap;html=1;fillColor=#F5F5F5;gradientColor=#C4C4C4;strokeColor=#666666;fontColor=#593C1E;fontStyle=1" parent="1" vertex="1">
          <mxGeometry x="828.09" y="469.5" width="120" height="27" as="geometry" />
        </mxCell>
        <mxCell id="vbh47llDTaEJvTZYUc-N-10" value="&lt;font style=&quot;color: rgb(78, 78, 78);&quot;&gt;erp_loc_a101&lt;/font&gt;" style="rounded=1;whiteSpace=wrap;html=1;fillColor=#F5F5F5;gradientColor=#C4C4C4;strokeColor=#666666;fontColor=#593C1E;fontStyle=1" parent="1" vertex="1">
          <mxGeometry x="828.09" y="509" width="120" height="27" as="geometry" />
        </mxCell>
        <mxCell id="vbh47llDTaEJvTZYUc-N-11" value="&lt;font style=&quot;color: rgb(78, 78, 78);&quot;&gt;erp_px_cat_g1v2&lt;/font&gt;" style="rounded=1;whiteSpace=wrap;html=1;fillColor=#F5F5F5;gradientColor=#C4C4C4;strokeColor=#666666;fontColor=#593C1E;fontStyle=1" parent="1" vertex="1">
          <mxGeometry x="828.09" y="549" width="120" height="27" as="geometry" />
        </mxCell>
        <mxCell id="lKSYH-GEVlxmnyc4tPlU-1" value="&lt;font style=&quot;&quot;&gt;fact_sales&lt;/font&gt;" style="rounded=1;whiteSpace=wrap;html=1;fillColor=#FFF2CC;gradientColor=#EFBF04;strokeColor=#D6B656;fontColor=#816A17;fontStyle=1" vertex="1" parent="1">
          <mxGeometry x="1003.09" y="403.5" width="120" height="27" as="geometry" />
        </mxCell>
        <mxCell id="lKSYH-GEVlxmnyc4tPlU-4" value="&lt;font style=&quot;&quot;&gt;dim_customers&lt;/font&gt;" style="rounded=1;whiteSpace=wrap;html=1;fillColor=#FFF2CC;gradientColor=#EFBF04;strokeColor=#D6B656;fontColor=#816A17;fontStyle=1" vertex="1" parent="1">
          <mxGeometry x="1003.09" y="441" width="120" height="27" as="geometry" />
        </mxCell>
        <mxCell id="lKSYH-GEVlxmnyc4tPlU-5" value="&lt;font style=&quot;&quot;&gt;dim_products&lt;/font&gt;" style="rounded=1;whiteSpace=wrap;html=1;fillColor=#FFF2CC;gradientColor=#EFBF04;strokeColor=#D6B656;fontColor=#816A17;fontStyle=1" vertex="1" parent="1">
          <mxGeometry x="1003.09" y="478" width="120" height="27" as="geometry" />
        </mxCell>
        <mxCell id="lKSYH-GEVlxmnyc4tPlU-6" value="" style="endArrow=classic;html=1;rounded=0;fontColor=#FFFFFF;labelBackgroundColor=default;strokeColor=#FFFFFF;entryX=0;entryY=0.5;entryDx=0;entryDy=0;exitX=1;exitY=0.5;exitDx=0;exitDy=0;jumpStyle=gap;" edge="1" parent="1" source="vbh47llDTaEJvTZYUc-N-1" target="lKSYH-GEVlxmnyc4tPlU-1">
          <mxGeometry width="50" height="50" relative="1" as="geometry">
            <mxPoint x="958.09" y="355" as="sourcePoint" />
            <mxPoint x="1008.09" y="305" as="targetPoint" />
          </mxGeometry>
        </mxCell>
        <mxCell id="lKSYH-GEVlxmnyc4tPlU-7" value="" style="endArrow=classic;html=1;rounded=0;fontColor=#FFFFFF;labelBackgroundColor=default;strokeColor=#FFFFFF;entryX=0;entryY=0.5;entryDx=0;entryDy=0;exitX=1;exitY=0.5;exitDx=0;exitDy=0;jumpStyle=gap;" edge="1" parent="1">
          <mxGeometry width="50" height="50" relative="1" as="geometry">
            <mxPoint x="948.09" y="386" as="sourcePoint" />
            <mxPoint x="1003.09" y="455" as="targetPoint" />
          </mxGeometry>
        </mxCell>
        <mxCell id="lKSYH-GEVlxmnyc4tPlU-8" value="" style="endArrow=classic;html=1;rounded=0;fontColor=#FFFFFF;labelBackgroundColor=default;strokeColor=#FFFFFF;entryX=0;entryY=0.5;entryDx=0;entryDy=0;exitX=1;exitY=0.5;exitDx=0;exitDy=0;jumpStyle=gap;" edge="1" parent="1">
          <mxGeometry width="50" height="50" relative="1" as="geometry">
            <mxPoint x="948.09" y="421.5" as="sourcePoint" />
            <mxPoint x="1003.09" y="490.5" as="targetPoint" />
          </mxGeometry>
        </mxCell>
        <mxCell id="lKSYH-GEVlxmnyc4tPlU-9" value="" style="endArrow=classic;html=1;rounded=0;fontColor=#FFFFFF;labelBackgroundColor=default;strokeColor=#FFFFFF;entryX=0;entryY=0.5;entryDx=0;entryDy=0;exitX=1;exitY=0.5;exitDx=0;exitDy=0;jumpStyle=gap;" edge="1" parent="1" target="lKSYH-GEVlxmnyc4tPlU-4">
          <mxGeometry width="50" height="50" relative="1" as="geometry">
            <mxPoint x="948.09" y="481" as="sourcePoint" />
            <mxPoint x="1003.09" y="550" as="targetPoint" />
          </mxGeometry>
        </mxCell>
        <mxCell id="lKSYH-GEVlxmnyc4tPlU-10" value="" style="endArrow=classic;html=1;rounded=0;fontColor=#FFFFFF;labelBackgroundColor=default;strokeColor=#FFFFFF;entryX=0;entryY=0.5;entryDx=0;entryDy=0;exitX=1;exitY=0.5;exitDx=0;exitDy=0;jumpStyle=gap;" edge="1" parent="1" target="lKSYH-GEVlxmnyc4tPlU-4">
          <mxGeometry width="50" height="50" relative="1" as="geometry">
            <mxPoint x="948.09" y="522.5" as="sourcePoint" />
            <mxPoint x="1003.09" y="496.5" as="targetPoint" />
          </mxGeometry>
        </mxCell>
        <mxCell id="lKSYH-GEVlxmnyc4tPlU-11" value="" style="endArrow=classic;html=1;rounded=0;fontColor=#FFFFFF;labelBackgroundColor=default;strokeColor=#FFFFFF;entryX=0;entryY=0.5;entryDx=0;entryDy=0;exitX=1;exitY=0.5;exitDx=0;exitDy=0;jumpStyle=gap;" edge="1" parent="1" target="lKSYH-GEVlxmnyc4tPlU-5">
          <mxGeometry width="50" height="50" relative="1" as="geometry">
            <mxPoint x="948.09" y="564" as="sourcePoint" />
            <mxPoint x="1003.09" y="496.5" as="targetPoint" />
          </mxGeometry>
        </mxCell>
        <mxCell id="lKSYH-GEVlxmnyc4tPlU-13" value="&lt;font style=&quot;font-size: 21px;&quot;&gt;&lt;b&gt;Data flow&lt;/b&gt;&lt;br&gt;Diagram&lt;/font&gt;" style="text;html=1;align=left;verticalAlign=middle;whiteSpace=wrap;rounded=0;fontColor=#FFFFFF;" vertex="1" parent="1">
          <mxGeometry x="467" y="225" width="110" height="50" as="geometry" />
        </mxCell>
      </root>
    </mxGraphModel>
  </diagram>
</mxfile>
